<svg xmlns="http://www.w3.org/2000/svg" width="1738.801" height="2038.568" viewBox="0 0 1738.801 2038.568"><defs><style>.a{fill:#1f1e21;stroke:rgba(0,0,0,0);}</style></defs><path class="a" d="M310.193-12731.584l25.873-25.869,51.738,51.738-25.869,25.869ZM-844-12705.715l51.738-51.738,25.869,25.869-51.738,51.738Zm-121.985,6.245,36.584-63.369,31.686,18.294-36.588,63.369Zm1407.508-45.075,31.686-18.294,36.584,63.369-31.683,18.29Zm134.5-13.551,35.339-9.471,18.94,70.679-35.339,9.467Zm-1662.52,61.2,18.94-70.678,35.339,9.47-18.94,70.679Zm1013.158-30.6a36.585,36.585,0,0,1,36.584-36.584A36.586,36.586,0,0,1-.17-12727.5a36.587,36.587,0,0,1-36.588,36.587A36.586,36.586,0,0,1-73.341-12727.5Zm-382.689,0a36.586,36.586,0,0,1,36.588-36.584,36.585,36.585,0,0,1,36.584,36.584,36.586,36.586,0,0,1-36.584,36.587A36.587,36.587,0,0,1-456.03-12727.5Zm631.024-2.774,18.294-31.687,63.365,36.588-18.29,31.683Zm-887.85,4.9,63.369-36.584,18.294,31.683-63.369,36.584Zm505.671-10.327,70.678-18.937,9.47,35.34-70.678,18.937Zm-121.981,16.4,9.47-35.34,70.678,18.937-9.47,35.34Zm382.065-8.1,9.47-35.343,70.678,18.94-9.47,35.339Zm-642.145-16.4,70.675-18.94,9.47,35.34-70.678,18.939Zm389.2-143.474,31.686-18.294,36.584,63.369-31.683,18.294Zm-124.389,45.075,36.588-63.369,31.683,18.294-36.588,63.365Zm259.932-53.685,35.339-9.47,18.936,70.679-35.339,9.47Zm-381.481,61.205,18.94-70.675,35.339,9.466-18.94,70.679Zm1013.609-30.708a36.588,36.588,0,0,1,36.588-36.588,36.587,36.587,0,0,1,36.584,36.588,36.589,36.589,0,0,1-36.584,36.588A36.59,36.59,0,0,1,567.629-12865.377Zm-128.773,0a36.588,36.588,0,0,1,36.588-36.588,36.584,36.584,0,0,1,36.584,36.588,36.587,36.587,0,0,1-36.584,36.588A36.59,36.59,0,0,1,438.856-12865.377Zm-128.049,0a36.588,36.588,0,0,1,36.588-36.588,36.587,36.587,0,0,1,36.584,36.588,36.589,36.589,0,0,1-36.584,36.588A36.59,36.59,0,0,1,310.806-12865.377Zm-128.049,0a36.588,36.588,0,0,1,36.588-36.588,36.587,36.587,0,0,1,36.584,36.588,36.589,36.589,0,0,1-36.584,36.588A36.59,36.59,0,0,1,182.757-12865.377Zm-126.369,0a36.584,36.584,0,0,1,36.584-36.588,36.588,36.588,0,0,1,36.588,36.588,36.59,36.59,0,0,1-36.588,36.588A36.587,36.587,0,0,1,56.388-12865.377Zm-642.148,0a36.588,36.588,0,0,1,36.588-36.588,36.587,36.587,0,0,1,36.584,36.588,36.589,36.589,0,0,1-36.584,36.588A36.59,36.59,0,0,1-585.76-12865.377Zm-126.372,0a36.588,36.588,0,0,1,36.588-36.588,36.584,36.584,0,0,1,36.584,36.588,36.587,36.587,0,0,1-36.584,36.588A36.59,36.59,0,0,1-712.133-12865.377Zm-128.049,0a36.588,36.588,0,0,1,36.588-36.588,36.587,36.587,0,0,1,36.584,36.588,36.589,36.589,0,0,1-36.584,36.588A36.59,36.59,0,0,1-840.182-12865.377Zm-128.049,0a36.588,36.588,0,0,1,36.588-36.588,36.587,36.587,0,0,1,36.584,36.588,36.589,36.589,0,0,1-36.584,36.588A36.59,36.59,0,0,1-968.231-12865.377Zm-128.769,0a36.588,36.588,0,0,1,36.588-36.588,36.587,36.587,0,0,1,36.584,36.588,36.589,36.589,0,0,1-36.584,36.588A36.59,36.59,0,0,1-1097-12865.377Zm896.962-105.282,36.584-63.369,31.686,18.294-36.588,63.369Zm-124.389-45.075,31.683-18.294,36.584,63.369-31.683,18.29ZM-64.5-12962.05l18.94-70.679,35.339,9.471-18.94,70.674Zm-381.477-61.208,35.339-9.471,18.94,70.679-35.339,9.466Zm1013.609,30.711a36.588,36.588,0,0,1,36.588-36.588,36.587,36.587,0,0,1,36.584,36.588,36.586,36.586,0,0,1-36.584,36.584A36.587,36.587,0,0,1,567.629-12992.547Zm-128.773,0a36.588,36.588,0,0,1,36.588-36.588,36.584,36.584,0,0,1,36.584,36.588,36.584,36.584,0,0,1-36.584,36.584A36.587,36.587,0,0,1,438.856-12992.547Zm-128.049,0a36.588,36.588,0,0,1,36.588-36.588,36.587,36.587,0,0,1,36.584,36.588,36.586,36.586,0,0,1-36.584,36.584A36.587,36.587,0,0,1,310.806-12992.547Zm-128.049,0a36.588,36.588,0,0,1,36.588-36.588,36.587,36.587,0,0,1,36.584,36.588,36.586,36.586,0,0,1-36.584,36.584A36.587,36.587,0,0,1,182.757-12992.547Zm-126.369,0a36.588,36.588,0,0,1,36.588-36.588,36.587,36.587,0,0,1,36.584,36.588,36.586,36.586,0,0,1-36.584,36.584A36.587,36.587,0,0,1,56.388-12992.547Zm-642.148,0a36.588,36.588,0,0,1,36.588-36.588,36.587,36.587,0,0,1,36.584,36.588,36.586,36.586,0,0,1-36.584,36.584A36.587,36.587,0,0,1-585.76-12992.547Zm-126.372,0a36.588,36.588,0,0,1,36.588-36.588,36.584,36.584,0,0,1,36.584,36.588,36.584,36.584,0,0,1-36.584,36.584A36.587,36.587,0,0,1-712.133-12992.547Zm-128.049,0a36.588,36.588,0,0,1,36.588-36.588,36.587,36.587,0,0,1,36.584,36.588,36.586,36.586,0,0,1-36.584,36.584A36.587,36.587,0,0,1-840.182-12992.547Zm-128.049,0a36.588,36.588,0,0,1,36.588-36.588,36.587,36.587,0,0,1,36.584,36.588,36.586,36.586,0,0,1-36.584,36.584A36.587,36.587,0,0,1-968.231-12992.547Zm-128.769,0a36.588,36.588,0,0,1,36.588-36.588,36.587,36.587,0,0,1,36.584,36.588,36.586,36.586,0,0,1-36.584,36.584A36.587,36.587,0,0,1-1097-12992.547Zm1664.629-128.962a36.587,36.587,0,0,1,36.588-36.587,36.586,36.586,0,0,1,36.584,36.587,36.586,36.586,0,0,1-36.584,36.584A36.587,36.587,0,0,1,567.629-13121.509Zm-128.773,0a36.587,36.587,0,0,1,36.588-36.587,36.584,36.584,0,0,1,36.584,36.587,36.584,36.584,0,0,1-36.584,36.584A36.587,36.587,0,0,1,438.856-13121.509Zm-128.049,0a36.587,36.587,0,0,1,36.588-36.587,36.586,36.586,0,0,1,36.584,36.587,36.586,36.586,0,0,1-36.584,36.584A36.587,36.587,0,0,1,310.806-13121.509Zm-128.049,0a36.587,36.587,0,0,1,36.588-36.587,36.586,36.586,0,0,1,36.584,36.587,36.586,36.586,0,0,1-36.584,36.584A36.587,36.587,0,0,1,182.757-13121.509Zm-894.89,0a36.587,36.587,0,0,1,36.588-36.587,36.584,36.584,0,0,1,36.584,36.587,36.584,36.584,0,0,1-36.584,36.584A36.587,36.587,0,0,1-712.133-13121.509Zm-128.049,0a36.587,36.587,0,0,1,36.588-36.587,36.586,36.586,0,0,1,36.584,36.587,36.586,36.586,0,0,1-36.584,36.584A36.587,36.587,0,0,1-840.182-13121.509Zm-128.049,0a36.587,36.587,0,0,1,36.588-36.587,36.586,36.586,0,0,1,36.584,36.587,36.586,36.586,0,0,1-36.584,36.584A36.587,36.587,0,0,1-968.231-13121.509Zm-128.769,0a36.587,36.587,0,0,1,36.588-36.587,36.586,36.586,0,0,1,36.584,36.587,36.586,36.586,0,0,1-36.584,36.584A36.587,36.587,0,0,1-1097-13121.509Zm1026.108,17.529,36.588-63.369,31.683,18.294-36.584,63.369Zm-382.689-45.075,31.686-18.294,36.584,63.369-31.683,18.294Zm519.418,53.142,18.936-70.678,35.339,9.47-18.936,70.679Zm-642.152-61.208,35.339-9.47,18.94,70.678-35.339,9.471Zm371.6,36.795,51.742-51.742,25.869,25.873-51.738,51.738ZM-329.1-13146.2l25.869-25.873,51.738,51.742-25.869,25.869Zm896.729-102.272a36.588,36.588,0,0,1,36.588-36.588,36.587,36.587,0,0,1,36.584,36.588,36.585,36.585,0,0,1-36.584,36.583A36.586,36.586,0,0,1,567.629-13248.468Zm-128.773,0a36.588,36.588,0,0,1,36.588-36.588,36.584,36.584,0,0,1,36.584,36.588,36.583,36.583,0,0,1-36.584,36.583A36.586,36.586,0,0,1,438.856-13248.468Zm-128.049,0a36.588,36.588,0,0,1,36.588-36.588,36.587,36.587,0,0,1,36.584,36.588,36.585,36.585,0,0,1-36.584,36.583A36.586,36.586,0,0,1,310.806-13248.468Zm-1150.988,0a36.588,36.588,0,0,1,36.588-36.588,36.587,36.587,0,0,1,36.584,36.588,36.585,36.585,0,0,1-36.584,36.583A36.586,36.586,0,0,1-840.182-13248.468Zm-128.049,0a36.588,36.588,0,0,1,36.588-36.588,36.587,36.587,0,0,1,36.584,36.588,36.585,36.585,0,0,1-36.584,36.583A36.586,36.586,0,0,1-968.231-13248.468Zm-128.769,0a36.588,36.588,0,0,1,36.588-36.588,36.587,36.587,0,0,1,36.584,36.588,36.585,36.585,0,0,1-36.584,36.583A36.586,36.586,0,0,1-1097-13248.468Zm1155.838,15.9,36.588-63.365,31.683,18.29-36.588,63.369Zm-642.148-45.075,31.686-18.294,36.584,63.369-31.683,18.294Zm376.576,27.971,63.369-36.584,18.29,31.683-63.369,36.584Zm-124.393-4.9,18.294-31.686,63.369,36.587-18.294,31.683Zm254.285,10.594,51.738-51.742,25.869,25.873-51.738,51.738Zm-380.126-25.869,25.873-25.873,51.738,51.742-25.869,25.869Zm645.654,41.965,18.94-70.679,35.339,9.471-18.94,70.678Zm-887.85-61.208,35.339-9.471,18.94,70.679-35.339,9.47Zm1266.793-88.341a36.588,36.588,0,0,1,36.588-36.588,36.587,36.587,0,0,1,36.584,36.588,36.589,36.589,0,0,1-36.584,36.588A36.59,36.59,0,0,1,567.629-13377.43Zm-128.559,0a36.584,36.584,0,0,1,36.584-36.588,36.588,36.588,0,0,1,36.588,36.588,36.59,36.59,0,0,1-36.588,36.588A36.587,36.587,0,0,1,439.07-13377.43Zm-1407.508,0a36.584,36.584,0,0,1,36.584-36.588,36.588,36.588,0,0,1,36.588,36.588,36.59,36.59,0,0,1-36.588,36.588A36.587,36.587,0,0,1-968.438-13377.43Zm-128.563,0a36.588,36.588,0,0,1,36.588-36.588,36.587,36.587,0,0,1,36.584,36.588,36.589,36.589,0,0,1-36.584,36.588A36.59,36.59,0,0,1-1097-13377.43Zm509.021-15.705,25.873-25.869,51.738,51.742-25.869,25.869Zm642.148,25.869L105.907-13419l25.869,25.869L80.038-13341.4Zm-133.039-8.055L-15.5-13411.9l18.294,31.683-63.369,36.587Zm-380.122-4.9,18.294-31.683,63.369,36.584-18.294,31.686Zm640.682,13.691,36.584-63.369,31.686,18.294-36.588,63.369Zm-887.85-45.075,31.683-18.294,36.588,63.369-31.686,18.294Zm500.182,28,70.678-18.94,9.466,35.34-70.678,18.94Zm-124.393,16.4,9.47-35.34,70.678,18.94-9.47,35.34Zm652.232,9.3,18.94-70.678,35.339,9.47-18.94,70.679Zm-1154.2-61.208,35.339-9.466,18.936,70.674-35.339,9.471Zm884.478-79.487,63.369-36.588,18.294,31.687-63.369,36.584Zm-642.148-4.9,18.294-31.687,63.369,36.588-18.294,31.683Zm1157.636-2.881a36.588,36.588,0,0,1,36.588-36.588,36.587,36.587,0,0,1,36.584,36.588,36.586,36.586,0,0,1-36.584,36.584A36.587,36.587,0,0,1,567.629-13506.388Zm-769.023,0a36.588,36.588,0,0,1,36.588-36.588,36.584,36.584,0,0,1,36.584,36.588,36.584,36.584,0,0,1-36.584,36.584A36.587,36.587,0,0,1-201.394-13506.388Zm-126.587,0a36.588,36.588,0,0,1,36.588-36.588,36.587,36.587,0,0,1,36.584,36.588,36.586,36.586,0,0,1-36.584,36.584A36.587,36.587,0,0,1-327.981-13506.388Zm-769.019,0a36.588,36.588,0,0,1,36.588-36.588,36.587,36.587,0,0,1,36.584,36.588,36.586,36.586,0,0,1-36.584,36.584A36.587,36.587,0,0,1-1097-13506.388Zm1545.515,26.741,18.94-70.679,35.339,9.47-18.94,70.679Zm-1407.508-61.212,35.339-9.467,18.936,70.679-35.339,9.466Zm880.88,31.6,70.678-18.937,9.47,35.34-70.678,18.937Zm-380.122,16.4,9.47-35.339,70.678,18.939-9.47,35.34Zm635.253-8.373,51.742-51.742,25.869,25.873-51.738,51.738Zm-887.846-25.869,25.869-25.873,51.738,51.742-25.869,25.869Zm1025.694,30.541,36.584-63.369,31.686,18.294-36.588,63.369Zm-1154.2-45.075,31.683-18.29,36.588,63.365-31.686,18.294Zm1415.356-63.11,18.936-70.679,35.339,9.471-18.936,70.675Zm-1662.517-61.208,35.336-9.471,18.94,70.679-35.339,9.467Zm1013.155,30.6a36.586,36.586,0,0,1,36.584-36.587A36.587,36.587,0,0,1-.17-13635.35a36.586,36.586,0,0,1-36.588,36.584A36.585,36.585,0,0,1-73.341-13635.35Zm-382.689,0a36.587,36.587,0,0,1,36.588-36.587,36.586,36.586,0,0,1,36.584,36.587,36.585,36.585,0,0,1-36.584,36.584A36.586,36.586,0,0,1-456.03-13635.35Zm897.549,17.05,36.588-63.365,31.683,18.29-36.584,63.369Zm-1407.508-45.072,31.683-18.293,36.588,63.369-31.686,18.29ZM52.9-13635.452l70.675-18.937,9.47,35.335-70.678,18.94Zm-642.148,16.4,9.466-35.339,70.678,18.94-9.466,35.339Zm764.24-13.521,63.369-36.584,18.294,31.683-63.369,36.588Zm-887.85-4.9,18.294-31.687,63.369,36.588-18.294,31.687Zm1023.05,6.216L361.935-13683l25.869,25.869-51.738,51.742ZM-844-13657.13l25.869-25.869,51.738,51.738-25.869,25.873Zm514.838,13.581,70.678-18.94,9.47,35.34-70.678,18.939Zm121.985,16.4,9.466-35.34,70.678,18.937-9.466,35.34Zm517.375-138.436,25.873-25.869,51.738,51.738-25.869,25.873ZM-844-13739.712l51.738-51.742,25.869,25.869-51.738,51.742Zm1285.523-38.833,31.686-18.294,36.584,63.369-31.683,18.293Zm-1407.508,45.075,36.584-63.369,31.686,18.294-36.588,63.368ZM576.02-13792.1l35.339-9.47,18.94,70.678-35.339,9.471Zm-1662.52,61.208,18.94-70.678,35.339,9.466-18.94,70.683Zm1013.158-30.6a36.587,36.587,0,0,1,36.584-36.588A36.588,36.588,0,0,1-.17-13761.492a36.587,36.587,0,0,1-36.588,36.584A36.586,36.586,0,0,1-73.341-13761.492Zm-382.689,0a36.588,36.588,0,0,1,36.588-36.588,36.587,36.587,0,0,1,36.584,36.588,36.586,36.586,0,0,1-36.584,36.584A36.587,36.587,0,0,1-456.03-13761.492Zm-256.826,2.123,63.369-36.584,18.294,31.683-63.369,36.588Zm887.85-4.9,18.294-31.686,63.365,36.587-18.29,31.683Zm-382.179-5.426,70.678-18.936,9.47,35.339-70.678,18.937Zm-121.981,16.4,9.47-35.339,70.678,18.936-9.47,35.34Zm382.065-8.1,9.47-35.339,70.678,18.937-9.47,35.339Zm-642.145-16.4,70.675-18.94,9.47,35.34-70.678,18.939Zm389.2-143.474,31.686-18.293,36.584,63.369-31.683,18.293Zm-124.389,45.076,36.588-63.369,31.683,18.293-36.588,63.369Zm259.932-53.686,35.339-9.47,18.936,70.679-35.339,9.47Zm-381.481,61.209,18.94-70.679,35.339,9.47-18.94,70.679Zm1013.609-30.712a36.584,36.584,0,0,1,36.588-36.584,36.583,36.583,0,0,1,36.584,36.584,36.587,36.587,0,0,1-36.584,36.588A36.588,36.588,0,0,1,567.629-13899.378Zm-128.773,0a36.584,36.584,0,0,1,36.588-36.584,36.581,36.581,0,0,1,36.584,36.584,36.584,36.584,0,0,1-36.584,36.588A36.588,36.588,0,0,1,438.856-13899.378Zm-128.049,0a36.584,36.584,0,0,1,36.588-36.584,36.583,36.583,0,0,1,36.584,36.584,36.587,36.587,0,0,1-36.584,36.588A36.588,36.588,0,0,1,310.806-13899.378Zm-128.049,0a36.584,36.584,0,0,1,36.588-36.584,36.583,36.583,0,0,1,36.584,36.584,36.587,36.587,0,0,1-36.584,36.588A36.588,36.588,0,0,1,182.757-13899.378Zm-126.369,0a36.581,36.581,0,0,1,36.584-36.584,36.584,36.584,0,0,1,36.588,36.584,36.588,36.588,0,0,1-36.588,36.588A36.584,36.584,0,0,1,56.388-13899.378Zm-642.148,0a36.584,36.584,0,0,1,36.588-36.584,36.583,36.583,0,0,1,36.584,36.584,36.587,36.587,0,0,1-36.584,36.588A36.588,36.588,0,0,1-585.76-13899.378Zm-126.372,0a36.584,36.584,0,0,1,36.588-36.584,36.581,36.581,0,0,1,36.584,36.584,36.584,36.584,0,0,1-36.584,36.588A36.588,36.588,0,0,1-712.133-13899.378Zm-128.049,0a36.584,36.584,0,0,1,36.588-36.584,36.583,36.583,0,0,1,36.584,36.584,36.587,36.587,0,0,1-36.584,36.588A36.588,36.588,0,0,1-840.182-13899.378Zm-128.049,0a36.584,36.584,0,0,1,36.588-36.584,36.583,36.583,0,0,1,36.584,36.584,36.587,36.587,0,0,1-36.584,36.588A36.588,36.588,0,0,1-968.231-13899.378Zm-128.769,0a36.584,36.584,0,0,1,36.588-36.584,36.583,36.583,0,0,1,36.584,36.584,36.587,36.587,0,0,1-36.584,36.588A36.588,36.588,0,0,1-1097-13899.378Zm896.962-105.282,36.584-63.369,31.686,18.294-36.588,63.369Zm-124.389-45.075,31.683-18.294,36.584,63.369-31.683,18.294Zm259.925,53.685,18.94-70.679,35.339,9.471-18.94,70.678Zm-381.477-61.208,35.339-9.471,18.94,70.679-35.339,9.47Zm1013.609,30.711a36.588,36.588,0,0,1,36.588-36.588,36.587,36.587,0,0,1,36.584,36.588,36.586,36.586,0,0,1-36.584,36.584A36.587,36.587,0,0,1,567.629-14026.548Zm-128.773,0a36.588,36.588,0,0,1,36.588-36.588,36.584,36.584,0,0,1,36.584,36.588,36.584,36.584,0,0,1-36.584,36.584A36.587,36.587,0,0,1,438.856-14026.548Zm-128.049,0a36.588,36.588,0,0,1,36.588-36.588,36.587,36.587,0,0,1,36.584,36.588,36.586,36.586,0,0,1-36.584,36.584A36.587,36.587,0,0,1,310.806-14026.548Zm-128.049,0a36.588,36.588,0,0,1,36.588-36.588,36.587,36.587,0,0,1,36.584,36.588,36.586,36.586,0,0,1-36.584,36.584A36.587,36.587,0,0,1,182.757-14026.548Zm-126.369,0a36.588,36.588,0,0,1,36.588-36.588,36.587,36.587,0,0,1,36.584,36.588,36.586,36.586,0,0,1-36.584,36.584A36.587,36.587,0,0,1,56.388-14026.548Zm-642.148,0a36.588,36.588,0,0,1,36.588-36.588,36.587,36.587,0,0,1,36.584,36.588,36.586,36.586,0,0,1-36.584,36.584A36.587,36.587,0,0,1-585.76-14026.548Zm-126.372,0a36.588,36.588,0,0,1,36.588-36.588,36.584,36.584,0,0,1,36.584,36.588,36.584,36.584,0,0,1-36.584,36.584A36.587,36.587,0,0,1-712.133-14026.548Zm-128.049,0a36.588,36.588,0,0,1,36.588-36.588,36.587,36.587,0,0,1,36.584,36.588,36.586,36.586,0,0,1-36.584,36.584A36.587,36.587,0,0,1-840.182-14026.548Zm-128.049,0a36.588,36.588,0,0,1,36.588-36.588,36.587,36.587,0,0,1,36.584,36.588,36.586,36.586,0,0,1-36.584,36.584A36.587,36.587,0,0,1-968.231-14026.548Zm-128.769,0a36.588,36.588,0,0,1,36.588-36.588,36.587,36.587,0,0,1,36.584,36.588,36.586,36.586,0,0,1-36.584,36.584A36.587,36.587,0,0,1-1097-14026.548ZM567.629-14155.51a36.583,36.583,0,0,1,36.588-36.583,36.583,36.583,0,0,1,36.584,36.583,36.587,36.587,0,0,1-36.584,36.588A36.588,36.588,0,0,1,567.629-14155.51Zm-128.773,0a36.583,36.583,0,0,1,36.588-36.583,36.58,36.58,0,0,1,36.584,36.583,36.584,36.584,0,0,1-36.584,36.588A36.588,36.588,0,0,1,438.856-14155.51Zm-128.049,0a36.583,36.583,0,0,1,36.588-36.583,36.583,36.583,0,0,1,36.584,36.583,36.587,36.587,0,0,1-36.584,36.588A36.588,36.588,0,0,1,310.806-14155.51Zm-128.049,0a36.583,36.583,0,0,1,36.588-36.583,36.583,36.583,0,0,1,36.584,36.583,36.587,36.587,0,0,1-36.584,36.588A36.588,36.588,0,0,1,182.757-14155.51Zm-894.89,0a36.583,36.583,0,0,1,36.588-36.583,36.58,36.58,0,0,1,36.584,36.583,36.584,36.584,0,0,1-36.584,36.588A36.588,36.588,0,0,1-712.133-14155.51Zm-128.049,0a36.583,36.583,0,0,1,36.588-36.583,36.583,36.583,0,0,1,36.584,36.583,36.587,36.587,0,0,1-36.584,36.588A36.588,36.588,0,0,1-840.182-14155.51Zm-128.049,0a36.583,36.583,0,0,1,36.588-36.583,36.583,36.583,0,0,1,36.584,36.583,36.587,36.587,0,0,1-36.584,36.588A36.588,36.588,0,0,1-968.231-14155.51Zm-128.769,0a36.583,36.583,0,0,1,36.588-36.583,36.583,36.583,0,0,1,36.584,36.583,36.587,36.587,0,0,1-36.584,36.588A36.588,36.588,0,0,1-1097-14155.51Zm1026.108,17.529,36.588-63.365,31.683,18.29-36.584,63.369Zm-382.689-45.075,31.686-18.293,36.584,63.368-31.683,18.294Zm519.418,53.143,18.936-70.679,35.339,9.47-18.936,70.679Zm-642.152-61.209,35.339-9.466,18.94,70.675-35.339,9.47Zm371.6,36.795,51.742-51.738,25.869,25.869-51.738,51.738ZM-329.1-14180.2l25.869-25.869,51.738,51.738-25.869,25.869Zm896.729-102.272a36.584,36.584,0,0,1,36.588-36.584,36.583,36.583,0,0,1,36.584,36.584,36.586,36.586,0,0,1-36.584,36.587A36.587,36.587,0,0,1,567.629-14282.469Zm-128.773,0a36.584,36.584,0,0,1,36.588-36.584,36.581,36.581,0,0,1,36.584,36.584,36.584,36.584,0,0,1-36.584,36.587A36.587,36.587,0,0,1,438.856-14282.469Zm-128.049,0a36.584,36.584,0,0,1,36.588-36.584,36.583,36.583,0,0,1,36.584,36.584,36.586,36.586,0,0,1-36.584,36.587A36.587,36.587,0,0,1,310.806-14282.469Zm-1150.988,0a36.584,36.584,0,0,1,36.588-36.584,36.583,36.583,0,0,1,36.584,36.584,36.586,36.586,0,0,1-36.584,36.587A36.587,36.587,0,0,1-840.182-14282.469Zm-128.049,0a36.584,36.584,0,0,1,36.588-36.584,36.583,36.583,0,0,1,36.584,36.584,36.586,36.586,0,0,1-36.584,36.587A36.587,36.587,0,0,1-968.231-14282.469Zm-128.769,0a36.584,36.584,0,0,1,36.588-36.584,36.583,36.583,0,0,1,36.584,36.584,36.586,36.586,0,0,1-36.584,36.587A36.587,36.587,0,0,1-1097-14282.469Zm1155.838,15.907,36.588-63.369,31.683,18.294-36.588,63.365Zm-642.148-45.075,31.686-18.294,36.584,63.369-31.683,18.29Zm376.576,27.968,63.369-36.584,18.29,31.683-63.369,36.587Zm-124.393-4.9,18.294-31.683,63.369,36.584-18.294,31.686Zm254.285,10.593,51.738-51.738,25.869,25.869-51.738,51.738Zm-380.126-25.869,25.873-25.869,51.738,51.738-25.869,25.869Zm645.654,41.965,18.94-70.678,35.339,9.47-18.94,70.679Zm-887.85-61.208,35.339-9.47,18.94,70.678-35.339,9.471Zm1266.793-88.341a36.584,36.584,0,0,1,36.588-36.584,36.583,36.583,0,0,1,36.584,36.584,36.587,36.587,0,0,1-36.584,36.588A36.588,36.588,0,0,1,567.629-14411.431Zm-128.559,0a36.581,36.581,0,0,1,36.584-36.584,36.584,36.584,0,0,1,36.588,36.584,36.588,36.588,0,0,1-36.588,36.588A36.584,36.584,0,0,1,439.07-14411.431Zm-1407.508,0a36.581,36.581,0,0,1,36.584-36.584,36.584,36.584,0,0,1,36.588,36.584,36.588,36.588,0,0,1-36.588,36.588A36.584,36.584,0,0,1-968.438-14411.431Zm-128.563,0a36.584,36.584,0,0,1,36.588-36.584,36.583,36.583,0,0,1,36.584,36.584,36.587,36.587,0,0,1-36.584,36.588A36.588,36.588,0,0,1-1097-14411.431Zm1151.169,10.168L105.907-14453l25.869,25.869-51.738,51.741Zm-642.148-25.872,25.873-25.869,51.738,51.741-25.869,25.869Zm509.109,17.813,63.369-36.584,18.294,31.683-63.369,36.588Zm-380.122-4.9,18.294-31.683,63.369,36.584-18.294,31.687Zm640.682,13.691,36.584-63.369,31.686,18.294-36.588,63.369Zm-887.85-45.075,31.683-18.294,36.588,63.369-31.686,18.294Zm500.182,28,70.678-18.939,9.466,35.339-70.678,18.94Zm-124.393,16.4,9.47-35.339,70.678,18.939-9.47,35.34Zm652.232,9.3,18.94-70.678,35.339,9.47-18.94,70.679Zm-1154.2-61.212,35.339-9.466,18.936,70.678-35.339,9.467Zm884.478-79.487,63.369-36.584,18.294,31.683-63.369,36.584Zm-642.148-4.9,18.294-31.687,63.369,36.588-18.294,31.683Zm1157.636-2.881a36.587,36.587,0,0,1,36.588-36.587,36.586,36.586,0,0,1,36.584,36.587,36.586,36.586,0,0,1-36.584,36.584A36.587,36.587,0,0,1,567.629-14540.389Zm-769.023,0a36.587,36.587,0,0,1,36.588-36.587,36.584,36.584,0,0,1,36.584,36.587,36.584,36.584,0,0,1-36.584,36.584A36.587,36.587,0,0,1-201.394-14540.389Zm-126.587,0a36.587,36.587,0,0,1,36.588-36.587,36.586,36.586,0,0,1,36.584,36.587,36.586,36.586,0,0,1-36.584,36.584A36.587,36.587,0,0,1-327.981-14540.389Zm-769.019,0a36.587,36.587,0,0,1,36.588-36.587,36.586,36.586,0,0,1,36.584,36.587,36.586,36.586,0,0,1-36.584,36.584A36.587,36.587,0,0,1-1097-14540.389Zm1545.515,26.741,18.94-70.679,35.339,9.47-18.94,70.679Zm-1407.508-61.209,35.339-9.47,18.936,70.679-35.339,9.47Zm880.88,31.6,70.678-18.937,9.47,35.339-70.678,18.937Zm-380.122,16.4,9.47-35.335,70.678,18.937-9.47,35.339Zm635.253-8.373,51.742-51.738,25.869,25.869-51.738,51.742Zm-887.846-25.869,25.869-25.869,51.738,51.738-25.869,25.873Zm1025.694,30.542,36.584-63.366,31.686,18.29-36.588,63.369Zm-1154.2-45.076,31.683-18.29,36.588,63.366-31.686,18.293Zm1415.356-63.11,18.936-70.678,35.339,9.47-18.936,70.679Zm-1662.517-61.208,35.336-9.47,18.94,70.678-35.339,9.471Zm1013.155,30.6a36.583,36.583,0,0,1,36.584-36.584A36.584,36.584,0,0,1-.17-14669.35a36.587,36.587,0,0,1-36.588,36.587A36.586,36.586,0,0,1-73.341-14669.35Zm-382.689,0a36.584,36.584,0,0,1,36.588-36.584,36.583,36.583,0,0,1,36.584,36.584,36.586,36.586,0,0,1-36.584,36.587A36.587,36.587,0,0,1-456.03-14669.35Zm897.549,17.053,36.588-63.369,31.683,18.294L473.2-14634Zm-1407.508-45.075,31.683-18.294,36.588,63.369L-929.405-14634ZM52.9-14669.453l70.675-18.937,9.47,35.335-70.678,18.94Zm-642.148,16.4,9.466-35.339,70.678,18.937-9.466,35.339Zm764.24-13.521,63.369-36.588,18.294,31.683-63.369,36.588Zm-887.85-4.905,18.294-31.683,63.369,36.588-18.294,31.683Zm1023.05,6.22L361.935-14717l25.869,25.869-51.738,51.742ZM-844-14691.131l25.869-25.869,51.738,51.738-25.869,25.873Zm636.822,29.98,9.466-35.339,70.678,18.939-9.466,35.34Zm-121.985-16.4,70.678-18.939,9.47,35.339-70.678,18.94Z" transform="translate(1097.5 14717.707)"/></svg>