<svg xmlns="http://www.w3.org/2000/svg" width="87" height="57.112" viewBox="0 0 87 57.112"><defs><style>.a{fill:#1f1e21;}</style></defs><g transform="translate(-40 -48)"><path class="a" d="M116.287,56.938h0a24.664,24.664,0,0,0-38.481-5.41l-5-8.677,0,.008,0,0L64.763,56.793l2.064,3.579L72.8,50.016l2.5,4.337a24.809,24.809,0,0,0-4.981,13.819A15.867,15.867,0,1,0,82.753,90.727a24.845,24.845,0,0,0,12.23,3.233,24.268,24.268,0,0,0,3.046-.2l3.575,6.2,3.095-1.789L101.715,93a24.674,24.674,0,0,0,14.573-36.062Zm-47.833,39.3a12.319,12.319,0,1,1,1.962-24.467,24.782,24.782,0,0,0,9.362,16.964A12.322,12.322,0,0,1,68.455,96.241ZM80.711,84.878a21.282,21.282,0,0,1-6.544-11.857,12.325,12.325,0,0,1,6.592,10.9C80.759,84.245,80.736,84.561,80.711,84.878Zm8.771,4.8A21.175,21.175,0,0,1,83.936,87.3a15.813,15.813,0,0,0-10.1-18.289,21.281,21.281,0,0,1,3.42-11.268L96.073,90.372A21.119,21.119,0,0,1,89.482,89.68Zm16.01-2.111a21.184,21.184,0,0,1-5.61,2.25l-20.237-35.1a21.212,21.212,0,0,1,4.748-3.737,21.1,21.1,0,0,1,28.822,7.732h0A21.16,21.16,0,0,1,105.492,87.569Z" transform="translate(7.417 5.148)"/><path class="a" d="M66.525,44.766l0,0-16.152,0L48.3,48.343h12L31.356,98.286l3.11,1.789L66.534,44.766Z" transform="translate(8.644 5.038)"/></g></svg>