<svg xmlns="http://www.w3.org/2000/svg" width="146" height="16.241" viewBox="0 0 146 16.241"><defs><style>.a{fill:#ffffff;}</style></defs><g transform="translate(-1149.021 -48.001)"><path class="a" d="M628.171-659.559l-4.355,14.9h2.433l1.131-3.992h4.739l1.131,3.992h2.54l-4.354-14.9Zm-.341,8.944,1.834-6.532h.172l1.834,6.532Zm20.6-4.226a4.337,4.337,0,0,1,1.026,3.1v7.087h-2.328v-6.745q0-2.625-2.282-2.626a3.281,3.281,0,0,0-.875.117,2.611,2.611,0,0,0-.77.352,1.749,1.749,0,0,0-.542.6,1.684,1.684,0,0,0-.2.832v7.471h-2.327v-11.014h2.327v1.878h.109a4.395,4.395,0,0,1,.438-.822,2.849,2.849,0,0,1,.649-.683,3.166,3.166,0,0,1,.9-.459,3.831,3.831,0,0,1,1.2-.171A3.516,3.516,0,0,1,648.426-654.842Zm11.42-.832h4.7v1.9h-4.7v7.215h4.7v1.9h-4.2a2.7,2.7,0,0,1-2.136-.777,2.941,2.941,0,0,1-.681-2.012v-6.325h-3.4v-1.9h2.412a1.249,1.249,0,0,0,.877-.246,1.216,1.216,0,0,0,.256-.886v-2.753h2.175Zm14.207-2.369a1.232,1.232,0,0,1-.354-.9v-.446a1.233,1.233,0,0,1,.354-.9,1.671,1.671,0,0,1,1.228-.361,1.709,1.709,0,0,1,1.247.361,1.231,1.231,0,0,1,.352.9v.446a1.23,1.23,0,0,1-.352.9,1.667,1.667,0,0,1-1.227.363A1.7,1.7,0,0,1,674.053-658.044Zm2.4,11.484h3.522v1.9h-9.605v-1.9h3.759v-7.215h-3.759v-1.9h6.083Zm12.892-13h-4.44v14.9h4.44a4.884,4.884,0,0,0,4.237-1.9,9.39,9.39,0,0,0,1.377-5.55,9.4,9.4,0,0,0-1.377-5.55A4.883,4.883,0,0,0,689.345-659.559Zm3.1,8.688a5.287,5.287,0,0,1-.8,3.148,2.823,2.823,0,0,1-2.444,1.1h-1.921V-657.6H689.2a2.823,2.823,0,0,1,2.444,1.1,5.3,5.3,0,0,1,.8,3.15Zm13.9,4.312h3.522v1.9h-9.605v-1.9h3.757v-7.215h-3.757v-1.9h6.083Zm-2.4-11.484a1.237,1.237,0,0,1-.352-.9v-.446a1.239,1.239,0,0,1,.352-.9,1.675,1.675,0,0,1,1.227-.361,1.712,1.712,0,0,1,1.249.361,1.239,1.239,0,0,1,.352.9v.446a1.237,1.237,0,0,1-.352.9,1.668,1.668,0,0,1-1.227.363A1.7,1.7,0,0,1,703.935-658.044Zm17.108-2.412h3.714v1.9h-4.205v2.882h4.205v1.9h-4.205v7.215h3.714v1.9H714.7v-1.9h3.522v-7.215H714.49v-1.9h3.735v-1.985a2.949,2.949,0,0,1,.683-2.017A2.7,2.7,0,0,1,721.043-660.456Zm14.942,0H739.7v1.9h-4.205v2.882H739.7v1.9h-4.205v7.215h3.714v1.9h-9.563v-1.9h3.522v-7.215h-3.735v-1.9h3.735v-1.985a2.948,2.948,0,0,1,.683-2.017A2.7,2.7,0,0,1,735.984-660.456Zm17.1,6.041a4.463,4.463,0,0,0-1.6-1.119,5.346,5.346,0,0,0-2.092-.4,5.467,5.467,0,0,0-2.135.405,4.5,4.5,0,0,0-1.633,1.164,5.4,5.4,0,0,0-1.046,1.825,7.2,7.2,0,0,0-.374,2.391,7.3,7.3,0,0,0,.363,2.38,5.063,5.063,0,0,0,1.046,1.8,4.545,4.545,0,0,0,1.686,1.153,5.99,5.99,0,0,0,2.262.406,5.591,5.591,0,0,0,2.85-.664,4.5,4.5,0,0,0,1.7-1.626l-1.452-1.284a3.605,3.605,0,0,1-1.227,1.218,3.475,3.475,0,0,1-1.825.455,3.018,3.018,0,0,1-2.241-.816,2.865,2.865,0,0,1-.811-2.11v-.361h7.9v-.875a6.677,6.677,0,0,0-.352-2.22A5,5,0,0,0,753.082-654.415Zm-1,3.33H746.55v-.148a3.144,3.144,0,0,1,.214-1.176,2.927,2.927,0,0,1,.587-.929,2.537,2.537,0,0,1,.9-.608,3.028,3.028,0,0,1,1.142-.214,2.561,2.561,0,0,1,1.953.779,2.908,2.908,0,0,1,.736,2.081Zm12.658.418v4.107h3.992v1.9h-9.243v-1.9h2.924v-7.215h-2.924v-1.9h5.251v2.924h.128a5.159,5.159,0,0,1,.427-1.11,3.373,3.373,0,0,1,.7-.928,3.364,3.364,0,0,1,1.046-.64,3.926,3.926,0,0,1,1.451-.245h1.323v2.22H767.64a2.948,2.948,0,0,0-2.092.756A2.642,2.642,0,0,0,764.737-650.667Z" transform="translate(525.204 708.647)"/></g></svg>
